<mxfile host="Electron" agent="Mozilla/5.0 (Windows NT 10.0; Win64; x64) AppleWebKit/537.36 (KHTML, like Gecko) draw.io/28.0.6 Chrome/138.0.7204.100 Electron/37.2.3 Safari/537.36" version="28.0.6">
  <diagram name="Page-1" id="c4acf3e9-155e-7222-9cf6-157b1a14988f">
    <mxGraphModel dx="872" dy="563" grid="1" gridSize="10" guides="1" tooltips="1" connect="1" arrows="1" fold="1" page="1" pageScale="1" pageWidth="850" pageHeight="1100" background="none" math="0" shadow="0">
      <root>
        <mxCell id="0" />
        <mxCell id="1" parent="0" />
        <mxCell id="TQEFx7DSt8Rb9ov1g4IW-8" value="" style="rounded=0;whiteSpace=wrap;html=1;rotation=-90;fillColor=#d5e8d4;strokeColor=#82b366;" parent="1" vertex="1">
          <mxGeometry x="-200" y="298.13" width="742.5" height="310" as="geometry" />
        </mxCell>
        <mxCell id="TQEFx7DSt8Rb9ov1g4IW-9" value="&lt;p style=&quot;margin:0px;margin-top:4px;text-align:center;&quot;&gt;&lt;i&gt;&amp;lt;&amp;lt;singleton&amp;gt;&amp;gt;&lt;/i&gt;&lt;/p&gt;&lt;p style=&quot;margin:0px;margin-top:4px;text-align:center;&quot;&gt;&lt;i style=&quot;background-color: transparent; color: light-dark(rgb(0, 0, 0), rgb(255, 255, 255));&quot;&gt;HOTEL&lt;/i&gt;&lt;/p&gt;&lt;hr size=&quot;1&quot;&gt;&lt;p style=&quot;margin:0px;margin-left:4px;&quot;&gt;- _instancia : Hotel&lt;/p&gt;&lt;p style=&quot;margin:0px;margin-left:4px;&quot;&gt;+ nombre : str&lt;/p&gt;&lt;p style=&quot;margin:0px;margin-left:4px;&quot;&gt;+ habitaciones : list&lt;/p&gt;&lt;hr size=&quot;1&quot;&gt;&lt;p style=&quot;margin:0px;margin-left:4px;&quot;&gt;- __init__()&amp;nbsp;&lt;/p&gt;&lt;p style=&quot;margin:0px;margin-left:4px;&quot;&gt;+ get_instancia() : Hotel&lt;/p&gt;&lt;p style=&quot;margin:0px;margin-left:4px;&quot;&gt;+ agregar_habitacion(h)&lt;/p&gt;&lt;p style=&quot;margin:0px;margin-left:4px;&quot;&gt;+ mostrar_disponibles()&lt;/p&gt;&lt;p style=&quot;margin:0px;margin-left:4px;&quot;&gt;+ buscar_habitaciones(n)&lt;/p&gt;&lt;p style=&quot;margin:0px;margin-left:4px;&quot;&gt;+ buscar_combinacion_habitaciones()&lt;/p&gt;&lt;p style=&quot;margin:0px;margin-left:4px;&quot;&gt;+ mostrar_info()&lt;/p&gt;&lt;div&gt;&lt;br&gt;&lt;/div&gt;" style="verticalAlign=top;align=left;overflow=fill;fontSize=12;fontFamily=Helvetica;html=1;rounded=0;shadow=0;comic=0;labelBackgroundColor=none;strokeWidth=1" parent="1" vertex="1">
          <mxGeometry x="64.38" y="140" width="220" height="210" as="geometry" />
        </mxCell>
        <mxCell id="TQEFx7DSt8Rb9ov1g4IW-10" value="&lt;p style=&quot;margin:0px;margin-top:4px;text-align:center;&quot;&gt;&lt;i&gt;&lt;span style=&quot;background-color: transparent;&quot;&gt;&amp;lt;&amp;lt;Observer&amp;gt;&amp;gt;&lt;/span&gt;&lt;br&gt;&lt;/i&gt;&lt;/p&gt;&lt;p style=&quot;margin:0px;margin-top:4px;text-align:center;&quot;&gt;&lt;i&gt;Reserva&lt;/i&gt;&lt;/p&gt;&lt;hr size=&quot;1&quot;&gt;&lt;p style=&quot;margin:0px;margin-left:4px;&quot;&gt;- fecha_inicio : datetime&lt;/p&gt;&lt;p style=&quot;margin:0px;margin-left:4px;&quot;&gt;- fecha_fin : datetime&lt;/p&gt;&lt;p style=&quot;margin:0px;margin-left:4px;&quot;&gt;- huesped : Huesped&lt;/p&gt;&lt;p style=&quot;margin:0px;margin-left:4px;&quot;&gt;- habitacion : Habitacion&lt;/p&gt;&lt;p style=&quot;margin:0px;margin-left:4px;&quot;&gt;- observadores : list&lt;/p&gt;&lt;hr size=&quot;1&quot;&gt;&lt;p style=&quot;margin:0px;margin-left:4px;&quot;&gt;+ __init__(...)&lt;/p&gt;&lt;p style=&quot;margin:0px;margin-left:4px;&quot;&gt;+ agregar_observador(obs: ObservadorReserva)&lt;/p&gt;&lt;p style=&quot;margin:0px;margin-left:4px;&quot;&gt;+ eliminar_observador(obs: ObservadorReserva)&lt;/p&gt;&lt;p style=&quot;margin:0px;margin-left:4px;&quot;&gt;+ notificar_observadores()&lt;/p&gt;&lt;p style=&quot;margin:0px;margin-left:4px;&quot;&gt;+ confirmar()&lt;/p&gt;" style="verticalAlign=top;align=left;overflow=fill;fontSize=12;fontFamily=Helvetica;html=1;rounded=0;shadow=0;comic=0;labelBackgroundColor=none;strokeWidth=1" parent="1" vertex="1">
          <mxGeometry x="24.38" y="410" width="270" height="212.04" as="geometry" />
        </mxCell>
        <mxCell id="TQEFx7DSt8Rb9ov1g4IW-11" value="&lt;p style=&quot;margin:0px;margin-top:4px;text-align:center;&quot;&gt;&lt;i&gt;&amp;lt;&amp;lt;Observer&amp;gt;&amp;gt;&lt;/i&gt;&lt;/p&gt;&lt;p style=&quot;margin:0px;margin-top:4px;text-align:center;&quot;&gt;&lt;i&gt;Huesped&lt;/i&gt;&lt;/p&gt;&lt;hr size=&quot;1&quot;&gt;&lt;p style=&quot;margin:0px;margin-left:4px;&quot;&gt;- nombre : str&lt;/p&gt;&lt;p style=&quot;margin:0px;margin-left:4px;&quot;&gt;- documento : str&lt;/p&gt;&lt;p style=&quot;margin:0px;margin-left:4px;&quot;&gt;- email : str&lt;/p&gt;&lt;p style=&quot;margin:0px;margin-left:4px;&quot;&gt;- telefono : str&lt;/p&gt;&lt;hr size=&quot;1&quot;&gt;&lt;p style=&quot;margin:0px;margin-left:4px;&quot;&gt;+ recibir_notificacion(msg: str): void&lt;/p&gt;" style="verticalAlign=top;align=left;overflow=fill;fontSize=12;fontFamily=Helvetica;html=1;rounded=0;shadow=0;comic=0;labelBackgroundColor=none;strokeWidth=1" parent="1" vertex="1">
          <mxGeometry x="49.38" y="660" width="200" height="150" as="geometry" />
        </mxCell>
        <mxCell id="TQEFx7DSt8Rb9ov1g4IW-13" value="" style="rounded=0;whiteSpace=wrap;html=1;rotation=-90;fillColor=#d5e8d4;strokeColor=#82b366;" parent="1" vertex="1">
          <mxGeometry x="342.01" y="322.37" width="560" height="431.75" as="geometry" />
        </mxCell>
        <mxCell id="TQEFx7DSt8Rb9ov1g4IW-14" value="&lt;p style=&quot;margin:0px;margin-top:4px;text-align:center;&quot;&gt;&lt;i&gt;&amp;lt;&amp;lt;Hereda de Habitacion&amp;gt;&amp;gt;&lt;/i&gt;&lt;/p&gt;&lt;p style=&quot;margin:0px;margin-top:4px;text-align:center;&quot;&gt;&lt;i&gt;HABITACION FAMILIAR&lt;/i&gt;&lt;/p&gt;&lt;hr size=&quot;1&quot;&gt;&lt;p style=&quot;margin:0px;margin-left:4px;&quot;&gt;+ capacidad&lt;br&gt;+ precio&lt;/p&gt;&lt;p style=&quot;margin:0px;margin-left:4px;&quot;&gt;+ tipo&lt;/p&gt;&lt;hr size=&quot;1&quot;&gt;&lt;p style=&quot;margin:0px;margin-left:4px;&quot;&gt;+ mostrar_info():&amp;nbsp;&lt;br&gt;&lt;/p&gt;" style="verticalAlign=top;align=left;overflow=fill;fontSize=12;fontFamily=Helvetica;html=1;rounded=0;shadow=0;comic=0;labelBackgroundColor=none;strokeWidth=1" parent="1" vertex="1">
          <mxGeometry x="644.38" y="690" width="180" height="120" as="geometry" />
        </mxCell>
        <mxCell id="TQEFx7DSt8Rb9ov1g4IW-15" value="&lt;p style=&quot;margin:0px;margin-top:4px;text-align:center;&quot;&gt;&lt;i&gt;&amp;lt;&amp;lt;Hereda de Habitacion&amp;gt;&amp;gt;&lt;/i&gt;&lt;/p&gt;&lt;p style=&quot;margin:0px;margin-top:4px;text-align:center;&quot;&gt;&lt;i&gt;HABITACION TRIPLE&lt;/i&gt;&lt;/p&gt;&lt;hr size=&quot;1&quot;&gt;&lt;p style=&quot;margin:0px;margin-left:4px;&quot;&gt;+ capacidad&lt;br&gt;+ precio&lt;/p&gt;&lt;p style=&quot;margin:0px;margin-left:4px;&quot;&gt;+ tipo&lt;/p&gt;&lt;hr size=&quot;1&quot;&gt;&lt;p style=&quot;margin:0px;margin-left:4px;&quot;&gt;+ mostrar_info ():&amp;nbsp;&lt;br&gt;&lt;/p&gt;" style="verticalAlign=top;align=left;overflow=fill;fontSize=12;fontFamily=Helvetica;html=1;rounded=0;shadow=0;comic=0;labelBackgroundColor=none;strokeWidth=1" parent="1" vertex="1">
          <mxGeometry x="644.38" y="550" width="180" height="125.76" as="geometry" />
        </mxCell>
        <mxCell id="TQEFx7DSt8Rb9ov1g4IW-16" value="&lt;p style=&quot;margin:0px;margin-top:4px;text-align:center;&quot;&gt;&lt;i&gt;&amp;lt;&amp;lt;Hereda de Habitacion&amp;gt;&amp;gt;&lt;/i&gt;&lt;/p&gt;&lt;p style=&quot;margin:0px;margin-top:4px;text-align:center;&quot;&gt;&lt;i&gt;HABITACION DOBLE&lt;/i&gt;&lt;/p&gt;&lt;hr size=&quot;1&quot;&gt;&lt;p style=&quot;margin:0px;margin-left:4px;&quot;&gt;+ capacidad&lt;br&gt;+ precio&lt;/p&gt;&lt;p style=&quot;margin:0px;margin-left:4px;&quot;&gt;+ tipo&lt;/p&gt;&lt;hr size=&quot;1&quot;&gt;&lt;p style=&quot;margin:0px;margin-left:4px;&quot;&gt;+ mostrar_info():&amp;nbsp;&lt;br&gt;&lt;/p&gt;" style="verticalAlign=top;align=left;overflow=fill;fontSize=12;fontFamily=Helvetica;html=1;rounded=0;shadow=0;comic=0;labelBackgroundColor=none;strokeWidth=1" parent="1" vertex="1">
          <mxGeometry x="644.38" y="410" width="180" height="130" as="geometry" />
        </mxCell>
        <mxCell id="TQEFx7DSt8Rb9ov1g4IW-17" value="&lt;p style=&quot;margin:0px;margin-top:4px;text-align:center;&quot;&gt;&lt;i&gt;&amp;lt;&amp;lt;Hereda de Habitacion&amp;gt;&amp;gt;&lt;/i&gt;&lt;/p&gt;&lt;p style=&quot;margin:0px;margin-top:4px;text-align:center;&quot;&gt;&lt;i&gt;HABITACION SENCILLA&lt;/i&gt;&lt;/p&gt;&lt;hr size=&quot;1&quot;&gt;&lt;p style=&quot;margin:0px;margin-left:4px;&quot;&gt;+ capacidad&lt;br&gt;&lt;/p&gt;&lt;p style=&quot;margin:0px;margin-left:4px;&quot;&gt;+ precio&lt;/p&gt;&lt;p style=&quot;margin:0px;margin-left:4px;&quot;&gt;&lt;br&gt;&lt;/p&gt;&lt;hr size=&quot;1&quot;&gt;&lt;p style=&quot;margin:0px;margin-left:4px;&quot;&gt;+ mostrar_info():&amp;nbsp;&lt;br&gt;&lt;/p&gt;" style="verticalAlign=top;align=left;overflow=fill;fontSize=12;fontFamily=Helvetica;html=1;rounded=0;shadow=0;comic=0;labelBackgroundColor=none;strokeWidth=1" parent="1" vertex="1">
          <mxGeometry x="644.38" y="270" width="175" height="130" as="geometry" />
        </mxCell>
        <mxCell id="TQEFx7DSt8Rb9ov1g4IW-18" value="&lt;p style=&quot;margin:0px;margin-top:4px;text-align:center;&quot;&gt;&lt;i&gt;&amp;lt;&amp;lt;Abstract&amp;gt;&amp;gt;&lt;/i&gt;&lt;/p&gt;&lt;p style=&quot;margin:0px;margin-top:4px;text-align:center;&quot;&gt;&lt;i&gt;Habitacion&lt;/i&gt;&lt;/p&gt;&lt;hr size=&quot;1&quot;&gt;&lt;p style=&quot;margin:0px;margin-left:4px;&quot;&gt;- numero : int&lt;/p&gt;&lt;p style=&quot;margin:0px;margin-left:4px;&quot;&gt;- capacidad : int&lt;/p&gt;&lt;p style=&quot;margin:0px;margin-left:4px;&quot;&gt;- precio : float&lt;/p&gt;&lt;hr size=&quot;1&quot;&gt;&lt;p style=&quot;margin:0px;margin-left:4px;&quot;&gt;+ mostrar_info():&amp;nbsp;&lt;br&gt;&lt;/p&gt;" style="verticalAlign=top;align=left;overflow=fill;fontSize=12;fontFamily=Helvetica;html=1;rounded=0;shadow=0;comic=0;labelBackgroundColor=none;strokeWidth=1" parent="1" vertex="1">
          <mxGeometry x="429.38" y="478.13" width="130" height="130" as="geometry" />
        </mxCell>
        <mxCell id="TQEFx7DSt8Rb9ov1g4IW-19" value="" style="rounded=0;whiteSpace=wrap;html=1;fillColor=#d5e8d4;strokeColor=#82b366;" parent="1" vertex="1">
          <mxGeometry x="374.38" y="80" width="350" height="140" as="geometry" />
        </mxCell>
        <mxCell id="TQEFx7DSt8Rb9ov1g4IW-49" value="" style="edgeStyle=orthogonalEdgeStyle;rounded=0;orthogonalLoop=1;jettySize=auto;html=1;" parent="1" source="TQEFx7DSt8Rb9ov1g4IW-20" target="TQEFx7DSt8Rb9ov1g4IW-9" edge="1">
          <mxGeometry relative="1" as="geometry" />
        </mxCell>
        <mxCell id="TQEFx7DSt8Rb9ov1g4IW-20" value="&lt;p style=&quot;margin:0px;margin-top:4px;text-align:center;&quot;&gt;&lt;i&gt;&amp;lt;&amp;lt;Factory&amp;gt;&amp;gt;&lt;/i&gt;&lt;/p&gt;&lt;p style=&quot;margin:0px;margin-top:4px;text-align:center;&quot;&gt;&lt;i&gt;HabitacionFactory&lt;/i&gt;&lt;/p&gt;&lt;hr size=&quot;1&quot;&gt;&lt;p style=&quot;margin:0px;margin-left:4px;&quot;&gt;+ crear_habitacion(tipo:str, numero:int): Habitacion&lt;/p&gt;&lt;hr size=&quot;1&quot;&gt;&lt;p style=&quot;margin:0px;margin-left:4px;&quot;&gt;+ mostrar_info():&amp;nbsp;&lt;br&gt;&lt;/p&gt;" style="verticalAlign=top;align=left;overflow=fill;fontSize=12;fontFamily=Helvetica;html=1;rounded=0;shadow=0;comic=0;labelBackgroundColor=none;strokeWidth=1" parent="1" vertex="1">
          <mxGeometry x="394.38" y="110" width="290" height="100" as="geometry" />
        </mxCell>
        <mxCell id="TQEFx7DSt8Rb9ov1g4IW-22" value="" style="endArrow=classic;html=1;rounded=0;entryX=0.5;entryY=0;entryDx=0;entryDy=0;exitX=0.465;exitY=1.019;exitDx=0;exitDy=0;exitPerimeter=0;" parent="1" source="TQEFx7DSt8Rb9ov1g4IW-10" target="TQEFx7DSt8Rb9ov1g4IW-11" edge="1">
          <mxGeometry width="50" height="50" relative="1" as="geometry">
            <mxPoint x="404.38" y="510" as="sourcePoint" />
            <mxPoint x="454.38" y="460" as="targetPoint" />
          </mxGeometry>
        </mxCell>
        <mxCell id="TQEFx7DSt8Rb9ov1g4IW-31" value="" style="endArrow=none;dashed=1;html=1;rounded=0;exitX=0;exitY=0.5;exitDx=0;exitDy=0;entryX=1.012;entryY=0.572;entryDx=0;entryDy=0;entryPerimeter=0;" parent="1" source="TQEFx7DSt8Rb9ov1g4IW-39" target="TQEFx7DSt8Rb9ov1g4IW-18" edge="1">
          <mxGeometry width="50" height="50" relative="1" as="geometry">
            <mxPoint x="404.38" y="630" as="sourcePoint" />
            <mxPoint x="584.38" y="538.2399999999993" as="targetPoint" />
            <Array as="points" />
          </mxGeometry>
        </mxCell>
        <mxCell id="TQEFx7DSt8Rb9ov1g4IW-32" value="" style="endArrow=none;dashed=1;html=1;rounded=0;exitX=0;exitY=0.5;exitDx=0;exitDy=0;" parent="1" source="TQEFx7DSt8Rb9ov1g4IW-15" edge="1">
          <mxGeometry width="50" height="50" relative="1" as="geometry">
            <mxPoint x="404.38" y="630" as="sourcePoint" />
            <mxPoint x="574.38" y="610" as="targetPoint" />
          </mxGeometry>
        </mxCell>
        <mxCell id="TQEFx7DSt8Rb9ov1g4IW-33" value="" style="endArrow=none;dashed=1;html=1;rounded=0;" parent="1" target="TQEFx7DSt8Rb9ov1g4IW-13" edge="1">
          <mxGeometry width="50" height="50" relative="1" as="geometry">
            <mxPoint x="404.38" y="630" as="sourcePoint" />
            <mxPoint x="454.38" y="580" as="targetPoint" />
          </mxGeometry>
        </mxCell>
        <mxCell id="TQEFx7DSt8Rb9ov1g4IW-35" value="" style="endArrow=none;dashed=1;html=1;rounded=0;entryX=0.014;entryY=0.571;entryDx=0;entryDy=0;entryPerimeter=0;" parent="1" target="TQEFx7DSt8Rb9ov1g4IW-17" edge="1">
          <mxGeometry width="50" height="50" relative="1" as="geometry">
            <mxPoint x="574.38" y="550" as="sourcePoint" />
            <mxPoint x="574.38" y="370" as="targetPoint" />
            <Array as="points">
              <mxPoint x="574.38" y="390" />
              <mxPoint x="574.38" y="344" />
            </Array>
          </mxGeometry>
        </mxCell>
        <mxCell id="TQEFx7DSt8Rb9ov1g4IW-37" value="" style="endArrow=none;dashed=1;html=1;rounded=0;" parent="1" edge="1">
          <mxGeometry width="50" height="50" relative="1" as="geometry">
            <mxPoint x="574.38" y="470" as="sourcePoint" />
            <mxPoint x="645.38" y="468" as="targetPoint" />
          </mxGeometry>
        </mxCell>
        <mxCell id="TQEFx7DSt8Rb9ov1g4IW-40" value="" style="endArrow=none;dashed=1;html=1;rounded=0;exitX=0;exitY=0.5;exitDx=0;exitDy=0;entryX=1.012;entryY=0.572;entryDx=0;entryDy=0;entryPerimeter=0;" parent="1" source="TQEFx7DSt8Rb9ov1g4IW-14" target="TQEFx7DSt8Rb9ov1g4IW-39" edge="1">
          <mxGeometry width="50" height="50" relative="1" as="geometry">
            <mxPoint x="644.38" y="750" as="sourcePoint" />
            <mxPoint x="561.38" y="552" as="targetPoint" />
            <Array as="points">
              <mxPoint x="574.38" y="750" />
              <mxPoint x="574.38" y="552" />
            </Array>
          </mxGeometry>
        </mxCell>
        <mxCell id="TQEFx7DSt8Rb9ov1g4IW-39" value="" style="rhombus;whiteSpace=wrap;html=1;" parent="1" vertex="1">
          <mxGeometry x="559.38" y="540" width="25" height="30" as="geometry" />
        </mxCell>
        <mxCell id="TQEFx7DSt8Rb9ov1g4IW-41" value="" style="endArrow=classic;html=1;rounded=0;entryX=-0.002;entryY=0.4;entryDx=0;entryDy=0;entryPerimeter=0;" parent="1" target="TQEFx7DSt8Rb9ov1g4IW-18" edge="1">
          <mxGeometry width="50" height="50" relative="1" as="geometry">
            <mxPoint x="304.38" y="530" as="sourcePoint" />
            <mxPoint x="354.38" y="480" as="targetPoint" />
          </mxGeometry>
        </mxCell>
        <mxCell id="TQEFx7DSt8Rb9ov1g4IW-42" value="" style="endArrow=classic;html=1;rounded=0;" parent="1" edge="1">
          <mxGeometry width="50" height="50" relative="1" as="geometry">
            <mxPoint x="484.38" y="480" as="sourcePoint" />
            <mxPoint x="484.38" y="230" as="targetPoint" />
          </mxGeometry>
        </mxCell>
        <mxCell id="TQEFx7DSt8Rb9ov1g4IW-47" value="" style="endArrow=none;html=1;rounded=0;entryX=0.639;entryY=0.413;entryDx=0;entryDy=0;entryPerimeter=0;" parent="1" source="TQEFx7DSt8Rb9ov1g4IW-24" target="TQEFx7DSt8Rb9ov1g4IW-8" edge="1">
          <mxGeometry width="50" height="50" relative="1" as="geometry">
            <mxPoint x="144.38" y="410" as="sourcePoint" />
            <mxPoint x="194.38" y="360" as="targetPoint" />
          </mxGeometry>
        </mxCell>
        <mxCell id="TQEFx7DSt8Rb9ov1g4IW-48" value="" style="endArrow=none;html=1;rounded=0;entryX=0.639;entryY=0.413;entryDx=0;entryDy=0;entryPerimeter=0;" parent="1" target="TQEFx7DSt8Rb9ov1g4IW-24" edge="1">
          <mxGeometry width="50" height="50" relative="1" as="geometry">
            <mxPoint x="144.38" y="410" as="sourcePoint" />
            <mxPoint x="144.38" y="350" as="targetPoint" />
          </mxGeometry>
        </mxCell>
        <mxCell id="TQEFx7DSt8Rb9ov1g4IW-24" value="" style="rhombus;whiteSpace=wrap;html=1;" parent="1" vertex="1">
          <mxGeometry x="129.38" y="350" width="25" height="30" as="geometry" />
        </mxCell>
        <mxCell id="p538IFbKZhz3gzExBp5B-4" value="&lt;font style=&quot;font-size: 20px;&quot;&gt;DIAGRAMA CON PATRONES ARQUITECTONICOS&lt;/font&gt;" style="text;html=1;align=center;verticalAlign=middle;whiteSpace=wrap;rounded=0;fillColor=#fff2cc;strokeColor=#d6b656;" vertex="1" parent="1">
          <mxGeometry x="160" y="20" width="540" height="30" as="geometry" />
        </mxCell>
      </root>
    </mxGraphModel>
  </diagram>
</mxfile>
